# This file uses centimeters as units for non-parametric coordinates.

mtllib SHAKE.mtl
g default
v 0.155243 2.863586 4.240326
v 0.037183 2.850873 4.216091
v -0.080877 2.863586 4.240326
v -0.129779 2.894278 4.298834
v -0.080877 2.924971 4.357343
v 0.037183 2.937684 4.381578
v 0.155243 2.924971 4.357343
v 0.204145 2.894278 4.298834
v 0.155243 4.442985 3.732077
v 0.037183 4.418543 3.719766
v -0.080877 4.442985 3.732077
v -0.129779 4.501992 3.761799
v -0.080877 4.561000 3.791521
v 0.037183 4.585441 3.803832
v 0.155243 4.561000 3.791521
v 0.204145 4.501992 3.761799
v 0.155243 4.862415 2.899376
v 0.037183 4.837973 2.887064
v -0.080877 4.862415 2.899376
v -0.129779 4.921422 2.929097
v -0.080877 4.980429 2.958819
v 0.037183 5.004871 2.971131
v 0.155243 4.980429 2.958819
v 0.204145 4.921422 2.929097
v 0.037183 2.894278 4.298834
v 0.037183 4.921422 2.929097
v 0.735695 2.974804 3.472832
v 0.281011 2.974804 3.149522
v -0.281011 2.974804 3.149522
v -0.735695 2.974804 3.472832
v -0.909369 2.974804 3.995959
v -0.735695 2.974804 4.519086
v -0.281011 2.974804 4.842396
v 0.281011 2.974804 4.842396
v 0.735695 2.974804 4.519085
v 0.909369 2.974804 3.995959
v 0.699688 3.283821 3.498436
v 0.267257 3.283821 3.190950
v -0.267257 3.283821 3.190950
v -0.699688 3.283821 3.498436
v -0.864862 3.283821 3.995959
v -0.699688 3.283821 4.493482
v -0.267257 3.283821 4.800968
v 0.267257 3.283821 4.800968
v 0.699688 3.283821 4.493482
v 0.864862 3.283821 3.995959
v 0.595190 3.562589 3.572740
v 0.227342 3.562589 3.311177
v -0.227342 3.562589 3.311177
v -0.595190 3.562589 3.572741
v -0.735695 3.562589 3.995959
v -0.595190 3.562589 4.419177
v -0.227342 3.562589 4.680741
v 0.227342 3.562589 4.680741
v 0.595190 3.562589 4.419177
v 0.735695 3.562589 3.995959
v 0.432431 3.783821 3.688473
v 0.165174 3.783821 3.498436
v -0.165174 3.783821 3.498436
v -0.432431 3.783821 3.688473
v -0.534514 3.783821 3.995959
v -0.432431 3.783821 4.303445
v -0.165174 3.783821 4.493482
v 0.165174 3.783821 4.493482
v 0.432431 3.783821 4.303445
v 0.534514 3.783821 3.995959
v 0.227342 3.925860 3.834304
v 0.086837 3.925860 3.734395
v -0.086837 3.925860 3.734396
v -0.227342 3.925860 3.834304
v -0.281011 3.925860 3.995959
v -0.227342 3.925860 4.157614
v -0.086837 3.925860 4.257522
v 0.086837 3.925860 4.257522
v 0.227342 3.925860 4.157614
v 0.281011 3.925860 3.995959
v 0.000000 3.974804 3.995959
v 0.803738 2.982364 4.607838
v 0.354834 2.988967 4.948331
v -0.206926 2.989764 4.992122
v -0.703188 2.984502 4.725310
v -0.976393 2.974851 4.232604
v -0.939799 2.963876 3.670435
v -0.605025 2.955061 3.217289
v -0.078359 2.951205 3.017035
v 0.472986 2.953532 3.133254
v 0.873961 2.961303 3.529046
v 0.997261 2.972051 4.078750
v 0.513703 1.066617 4.406044
v 0.158129 1.070835 4.623909
v -0.290507 1.071241 4.647092
v -0.689769 1.067707 4.468232
v -0.912892 1.061354 4.144117
v -0.889037 1.054199 3.777651
v -0.625778 1.048515 3.485183
v -0.206697 1.046105 3.359571
v 0.235150 1.047735 3.440696
v 0.559480 1.052888 3.702800
v 0.663320 1.059926 4.062668
vt 0.610485 0.045765
vt 0.500000 0.000000
vt 0.389515 0.045765
vt 0.343750 0.156250
vt 0.389515 0.266735
vt 0.500000 0.312500
vt 0.610485 0.266735
vt 0.656250 0.156250
vt 0.375000 0.312500
vt 0.406250 0.312500
vt 0.437500 0.312500
vt 0.468750 0.312500
vt 0.500000 0.312500
vt 0.531250 0.312500
vt 0.562500 0.312500
vt 0.593750 0.312500
vt 0.625000 0.312500
vt 0.375000 0.500470
vt 0.406250 0.500470
vt 0.437500 0.500470
vt 0.468750 0.500470
vt 0.500000 0.500470
vt 0.531250 0.500470
vt 0.562500 0.500470
vt 0.593750 0.500470
vt 0.625000 0.500470
vt 0.375000 0.688440
vt 0.406250 0.688440
vt 0.437500 0.688440
vt 0.468750 0.688440
vt 0.500000 0.688440
vt 0.531250 0.688440
vt 0.562500 0.688440
vt 0.593750 0.688440
vt 0.625000 0.688440
vt 0.610485 0.733265
vt 0.500000 0.687500
vt 0.389515 0.733265
vt 0.343750 0.843750
vt 0.389515 0.954235
vt 0.500000 1.000000
vt 0.610485 0.954235
vt 0.656250 0.843750
vt 0.500000 0.150000
vt 0.500000 0.837500
vt 0.000000 0.500000
vt 0.100000 0.500000
vt 0.100000 0.600000
vt 0.000000 0.600000
vt 0.200000 0.500000
vt 0.200000 0.600000
vt 0.300000 0.500000
vt 0.300000 0.600000
vt 0.400000 0.500000
vt 0.400000 0.600000
vt 0.500000 0.500000
vt 0.500000 0.600000
vt 0.600000 0.500000
vt 0.600000 0.600000
vt 0.700000 0.500000
vt 0.700000 0.600000
vt 0.800000 0.500000
vt 0.800000 0.600000
vt 0.900000 0.500000
vt 0.900000 0.600000
vt 1.000000 0.500000
vt 1.000000 0.600000
vt 0.100000 0.700000
vt 0.000000 0.700000
vt 0.200000 0.700000
vt 0.300000 0.700000
vt 0.400000 0.700000
vt 0.500000 0.700000
vt 0.600000 0.700000
vt 0.700000 0.700000
vt 0.800000 0.700000
vt 0.900000 0.700000
vt 1.000000 0.700000
vt 0.100000 0.800000
vt 0.000000 0.800000
vt 0.200000 0.800000
vt 0.300000 0.800000
vt 0.400000 0.800000
vt 0.500000 0.800000
vt 0.600000 0.800000
vt 0.700000 0.800000
vt 0.800000 0.800000
vt 0.900000 0.800000
vt 1.000000 0.800000
vt 0.100000 0.900000
vt 0.000000 0.900000
vt 0.200000 0.900000
vt 0.300000 0.900000
vt 0.400000 0.900000
vt 0.500000 0.900000
vt 0.600000 0.900000
vt 0.700000 0.900000
vt 0.800000 0.900000
vt 0.900000 0.900000
vt 1.000000 0.900000
vt 0.050000 1.000000
vt 0.150000 1.000000
vt 0.250000 1.000000
vt 0.350000 1.000000
vt 0.450000 1.000000
vt 0.550000 1.000000
vt 0.650000 1.000000
vt 0.750000 1.000000
vt 0.850000 1.000000
vt 0.950000 1.000000
vt 0.250000 0.500000
vt 0.295455 0.500000
vt 0.336364 0.600000
vt 0.300000 0.600000
vt 0.340909 0.500000
vt 0.372727 0.600000
vt 0.386364 0.500000
vt 0.409091 0.600000
vt 0.431818 0.500000
vt 0.445455 0.600000
vt 0.477273 0.500000
vt 0.481818 0.600000
vt 0.522727 0.500000
vt 0.518182 0.600000
vt 0.568182 0.500000
vt 0.554545 0.600000
vt 0.613636 0.500000
vt 0.590909 0.600000
vt 0.659091 0.500000
vt 0.627273 0.600000
vt 0.704546 0.500000
vt 0.663636 0.600000
vt 0.750000 0.500000
vt 0.700000 0.600000
vt 0.710313 0.114840
vt 0.750000 0.250000
vt 0.710313 0.385160
vt 0.603854 0.477408
vt 0.464421 0.497455
vt 0.336285 0.438937
vt 0.260127 0.320433
vt 0.260127 0.179567
vt 0.336285 0.061063
vt 0.464421 0.002545
vt 0.603854 0.022592
vn 0.191677 -0.298454 -0.934979
vn 0.191677 -0.298454 -0.934979
vn 0.217819 -0.528088 -0.820779
vn 0.220518 -0.559798 -0.798748
vn -0.191677 -0.298454 -0.934979
vn -0.191677 -0.298454 -0.934979
vn -0.220518 -0.559798 -0.798748
vn -0.217819 -0.528088 -0.820779
vn -0.752620 -0.205200 -0.625664
vn -0.752620 -0.205200 -0.625664
vn -0.802321 -0.379499 -0.460718
vn -0.788489 -0.313374 -0.529228
vn -0.754414 0.211294 0.621462
vn -0.754414 0.211294 0.621462
vn -0.802076 0.379650 0.461020
vn -0.788748 0.315939 0.527314
vn -0.194154 0.322617 0.926403
vn -0.194154 0.322617 0.926403
vn -0.220424 0.564807 0.795240
vn -0.217958 0.535685 0.815804
vn 0.194154 0.322617 0.926403
vn 0.194154 0.322617 0.926403
vn 0.217958 0.535685 0.815804
vn 0.220424 0.564807 0.795240
vn 0.754413 0.211294 0.621462
vn 0.754414 0.211294 0.621462
vn 0.788747 0.315939 0.527314
vn 0.802076 0.379650 0.461020
vn 0.752620 -0.205201 -0.625665
vn 0.752620 -0.205201 -0.625665
vn 0.788489 -0.313375 -0.529228
vn 0.802321 -0.379499 -0.460718
vn 0.225818 -0.870033 -0.438234
vn 0.225818 -0.870033 -0.438234
vn -0.225818 -0.870033 -0.438234
vn -0.225818 -0.870033 -0.438234
vn -0.803783 -0.531326 -0.267628
vn -0.803783 -0.531326 -0.267628
vn -0.803783 0.531326 0.267628
vn -0.803783 0.531326 0.267628
vn -0.225820 0.870033 0.438234
vn -0.225820 0.870033 0.438234
vn 0.225820 0.870033 0.438234
vn 0.225820 0.870033 0.438234
vn 0.803783 0.531326 0.267628
vn 0.803783 0.531326 0.267628
vn 0.803783 -0.531327 -0.267627
vn 0.803783 -0.531327 -0.267627
vn 0.000000 -0.885551 0.464542
vn 0.000000 -0.885551 0.464542
vn 0.000000 -0.885551 0.464543
vn -0.000000 -0.885554 0.464536
vn 0.000000 -0.885551 0.464542
vn -0.000000 -0.885548 0.464548
vn 0.000000 -0.885551 0.464542
vn 0.000000 -0.885548 0.464548
vn 0.000000 -0.885549 0.464546
vn 0.000000 0.449849 -0.893105
vn -0.000000 0.449855 -0.893102
vn 0.000000 0.449853 -0.893103
vn -0.000000 0.449852 -0.893103
vn 0.000000 0.449854 -0.893102
vn -0.000000 0.449855 -0.893102
vn 0.000000 0.449851 -0.893104
vn 0.000000 0.449855 -0.893102
vn 0.000000 0.449851 -0.893103
vn 0.574285 0.133834 -0.807642
vn 0.574285 0.133834 -0.807642
vn 0.574285 0.133834 -0.807642
vn 0.574285 0.133834 -0.807642
vn -0.000000 0.132874 -0.991133
vn -0.000000 0.132874 -0.991133
vn -0.000000 0.132874 -0.991133
vn -0.000000 0.132874 -0.991133
vn -0.574285 0.133834 -0.807641
vn -0.574285 0.133834 -0.807641
vn -0.574285 0.133834 -0.807641
vn -0.574285 0.133834 -0.807642
vn -0.940320 0.135434 -0.312179
vn -0.940320 0.135434 -0.312179
vn -0.940320 0.135434 -0.312179
vn -0.940320 0.135434 -0.312179
vn -0.940320 0.135434 0.312179
vn -0.940320 0.135434 0.312179
vn -0.940320 0.135434 0.312179
vn -0.940320 0.135434 0.312179
vn -0.574285 0.133835 0.807642
vn -0.574285 0.133835 0.807642
vn -0.574285 0.133835 0.807642
vn -0.574285 0.133835 0.807642
vn 0.000000 0.132874 0.991133
vn 0.000000 0.132874 0.991133
vn 0.000000 0.132874 0.991133
vn 0.000000 0.132874 0.991133
vn 0.574285 0.133834 0.807642
vn 0.574285 0.133834 0.807642
vn 0.574285 0.133834 0.807642
vn 0.574285 0.133834 0.807642
vn 0.940320 0.135434 0.312179
vn 0.940320 0.135434 0.312179
vn 0.940320 0.135434 0.312179
vn 0.940320 0.135434 0.312179
vn 0.940320 0.135434 -0.312179
vn 0.940320 0.135434 -0.312179
vn 0.940320 0.135434 -0.312179
vn 0.940320 0.135434 -0.312179
vn 0.531504 0.398475 -0.747476
vn 0.531504 0.398475 -0.747476
vn 0.531504 0.398475 -0.747476
vn 0.531504 0.398475 -0.747476
vn -0.000000 0.396020 -0.918242
vn -0.000000 0.396020 -0.918242
vn -0.000000 0.396020 -0.918242
vn -0.000000 0.396020 -0.918242
vn -0.531503 0.398474 -0.747477
vn -0.531503 0.398474 -0.747477
vn -0.531503 0.398474 -0.747477
vn -0.531503 0.398474 -0.747477
vn -0.868774 0.402544 -0.288427
vn -0.868774 0.402544 -0.288427
vn -0.868774 0.402544 -0.288427
vn -0.868774 0.402544 -0.288427
vn -0.868774 0.402544 0.288427
vn -0.868774 0.402544 0.288427
vn -0.868774 0.402544 0.288427
vn -0.868774 0.402544 0.288427
vn -0.531504 0.398474 0.747477
vn -0.531504 0.398474 0.747477
vn -0.531504 0.398474 0.747477
vn -0.531504 0.398474 0.747477
vn 0.000000 0.396021 0.918242
vn 0.000000 0.396021 0.918242
vn 0.000000 0.396021 0.918242
vn 0.000000 0.396021 0.918242
vn 0.531505 0.398475 0.747476
vn 0.531505 0.398475 0.747476
vn 0.531505 0.398475 0.747476
vn 0.531505 0.398475 0.747476
vn 0.868774 0.402544 0.288427
vn 0.868774 0.402544 0.288427
vn 0.868774 0.402544 0.288427
vn 0.868774 0.402544 0.288427
vn 0.868774 0.402544 -0.288427
vn 0.868774 0.402544 -0.288427
vn 0.868774 0.402544 -0.288427
vn 0.868774 0.402544 -0.288427
vn 0.440961 0.648826 -0.620144
vn 0.440961 0.648826 -0.620144
vn 0.440961 0.648826 -0.620144
vn 0.440961 0.648826 -0.620144
vn 0.000000 0.646068 -0.763280
vn 0.000000 0.646067 -0.763280
vn 0.000000 0.646067 -0.763280
vn 0.000000 0.646067 -0.763280
vn -0.440962 0.648826 -0.620143
vn -0.440962 0.648826 -0.620143
vn -0.440962 0.648826 -0.620143
vn -0.440962 0.648826 -0.620143
vn -0.718483 0.653365 -0.238530
vn -0.718483 0.653365 -0.238530
vn -0.718483 0.653365 -0.238530
vn -0.718483 0.653365 -0.238530
vn -0.718482 0.653365 0.238531
vn -0.718482 0.653365 0.238531
vn -0.718482 0.653365 0.238531
vn -0.718482 0.653365 0.238531
vn -0.440962 0.648826 0.620143
vn -0.440962 0.648826 0.620143
vn -0.440962 0.648826 0.620143
vn -0.440962 0.648826 0.620143
vn 0.000000 0.646067 0.763281
vn 0.000000 0.646067 0.763281
vn 0.000000 0.646067 0.763281
vn 0.000000 0.646067 0.763281
vn 0.440962 0.648826 0.620143
vn 0.440962 0.648826 0.620143
vn 0.440962 0.648826 0.620143
vn 0.440962 0.648826 0.620143
vn 0.718482 0.653365 0.238531
vn 0.718482 0.653365 0.238531
vn 0.718482 0.653365 0.238531
vn 0.718482 0.653365 0.238531
vn 0.718482 0.653365 -0.238532
vn 0.718482 0.653365 -0.238532
vn 0.718482 0.653365 -0.238532
vn 0.718482 0.653365 -0.238532
vn 0.297258 0.858414 -0.418046
vn 0.297258 0.858414 -0.418046
vn 0.297258 0.858414 -0.418046
vn 0.297258 0.858414 -0.418046
vn -0.000000 0.856749 -0.515734
vn -0.000000 0.856749 -0.515734
vn -0.000000 0.856749 -0.515734
vn -0.000000 0.856749 -0.515734
vn -0.297259 0.858414 -0.418046
vn -0.297259 0.858414 -0.418046
vn -0.297259 0.858414 -0.418046
vn -0.297259 0.858414 -0.418046
vn -0.482494 0.861127 -0.160185
vn -0.482494 0.861127 -0.160185
vn -0.482494 0.861127 -0.160185
vn -0.482494 0.861127 -0.160185
vn -0.482495 0.861127 0.160183
vn -0.482495 0.861127 0.160183
vn -0.482495 0.861127 0.160183
vn -0.482495 0.861127 0.160183
vn -0.297258 0.858413 0.418049
vn -0.297258 0.858413 0.418049
vn -0.297258 0.858413 0.418049
vn -0.297258 0.858413 0.418049
vn 0.000000 0.856750 0.515732
vn 0.000000 0.856750 0.515732
vn 0.000000 0.856750 0.515732
vn 0.000000 0.856750 0.515732
vn 0.297258 0.858414 0.418048
vn 0.297258 0.858414 0.418048
vn 0.297258 0.858414 0.418048
vn 0.297258 0.858414 0.418048
vn 0.482494 0.861127 0.160185
vn 0.482494 0.861127 0.160185
vn 0.482494 0.861127 0.160185
vn 0.482494 0.861127 0.160185
vn 0.482494 0.861127 -0.160185
vn 0.482494 0.861127 -0.160185
vn 0.482494 0.861127 -0.160185
vn 0.482494 0.861127 -0.160185
vn 0.105832 0.983183 -0.148834
vn 0.105832 0.983183 -0.148834
vn 0.105832 0.983183 -0.148834
vn 0.000000 0.982940 -0.183924
vn 0.000000 0.982940 -0.183924
vn 0.000000 0.982940 -0.183924
vn -0.105832 0.983182 -0.148836
vn -0.105832 0.983182 -0.148835
vn -0.105832 0.983182 -0.148835
vn -0.171309 0.983575 -0.056872
vn -0.171309 0.983575 -0.056872
vn -0.171309 0.983575 -0.056872
vn -0.171309 0.983574 0.056877
vn -0.171309 0.983574 0.056877
vn -0.171309 0.983574 0.056877
vn -0.105832 0.983183 0.148834
vn -0.105832 0.983183 0.148834
vn -0.105832 0.983183 0.148834
vn 0.000000 0.982940 0.183926
vn 0.000000 0.982940 0.183926
vn 0.000000 0.982940 0.183926
vn 0.105832 0.983182 0.148837
vn 0.105832 0.983182 0.148837
vn 0.105832 0.983182 0.148837
vn 0.171309 0.983575 0.056872
vn 0.171309 0.983575 0.056872
vn 0.171309 0.983575 0.056872
vn 0.171309 0.983575 -0.056872
vn 0.171309 0.983575 -0.056872
vn 0.171309 0.983575 -0.056872
vn 0.763828 -0.183821 0.618690
vn 0.323630 -0.185542 0.927814
vn 0.312661 -0.185400 0.931595
vn 0.764479 -0.183801 0.617891
vn -0.178110 -0.160554 0.970824
vn -0.204129 -0.158266 0.966066
vn -0.653455 -0.104812 0.749674
vn -0.679190 -0.100664 0.727026
vn -0.966012 -0.050200 0.253577
vn -0.971251 -0.049008 0.232957
vn -0.927913 -0.051706 -0.369194
vn -0.931331 -0.051132 -0.360567
vn -0.555814 -0.109289 -0.824092
vn -0.578359 -0.105874 -0.808883
vn -0.052267 -0.167132 -0.984548
vn -0.077520 -0.164911 -0.983257
vn 0.445236 -0.191956 -0.874596
vn 0.430963 -0.191805 -0.881749
vn 0.842707 -0.187669 -0.504603
vn 0.838180 -0.187890 -0.512008
vn 0.981259 -0.179286 0.070616
vn 0.981681 -0.179308 0.064433
vn -0.000104 0.999809 -0.019525
vn -0.000104 0.999809 -0.019525
vn -0.000104 0.999809 -0.019525
vn -0.000104 0.999809 -0.019525
vn -0.000104 0.999809 -0.019525
vn -0.000104 0.999809 -0.019525
vn -0.000104 0.999809 -0.019525
vn -0.000104 0.999809 -0.019525
vn -0.000104 0.999809 -0.019525
vn -0.000104 0.999809 -0.019525
vn -0.000104 0.999809 -0.019525
vn 0.000104 -0.999809 0.019526
vn 0.000104 -0.999809 0.019526
vn 0.000104 -0.999809 0.019526
vn 0.000104 -0.999809 0.019526
vn 0.000104 -0.999809 0.019526
vn 0.000104 -0.999809 0.019526
vn 0.000104 -0.999809 0.019526
vn 0.000104 -0.999809 0.019526
vn 0.000104 -0.999809 0.019526
vn 0.000104 -0.999809 0.019526
vn 0.000104 -0.999809 0.019526
s 1
g pCylinder3
usemtl blinn1SG
f 1/9/1 2/10/2 10/19/3 9/18/4
s 2
f 2/10/5 3/11/6 11/20/7 10/19/8
s 3
f 3/11/9 4/12/10 12/21/11 11/20/12
s 4
f 4/12/13 5/13/14 13/22/15 12/21/16
s 5
f 5/13/17 6/14/18 14/23/19 13/22/20
s 6
f 6/14/21 7/15/22 15/24/23 14/23/24
s 7
f 7/15/25 8/16/26 16/25/27 15/24/28
s 8
f 8/16/29 1/17/30 9/26/31 16/25/32
s 1
f 9/18/4 10/19/3 18/28/33 17/27/34
s 2
f 10/19/8 11/20/7 19/29/35 18/28/36
s 3
f 11/20/12 12/21/11 20/30/37 19/29/38
s 4
f 12/21/16 13/22/15 21/31/39 20/30/40
s 5
f 13/22/20 14/23/19 22/32/41 21/31/42
s 6
f 14/23/24 15/24/23 23/33/43 22/32/44
s 7
f 15/24/28 16/25/27 24/34/45 23/33/46
s 8
f 16/25/32 9/26/31 17/35/47 24/34/48
s 9
f 2/2/49 1/1/50 25/44/51
f 3/3/52 2/2/49 25/44/51
f 4/4/53 3/3/52 25/44/51
f 5/5/54 4/4/53 25/44/51
f 6/6/55 5/5/54 25/44/51
f 7/7/56 6/6/55 25/44/51
f 8/8/57 7/7/56 25/44/51
f 1/1/50 8/8/57 25/44/51
s 10
f 17/42/58 18/41/59 26/45/60
f 18/41/59 19/40/61 26/45/60
f 19/40/61 20/39/62 26/45/60
f 20/39/62 21/38/63 26/45/60
f 21/38/63 22/37/64 26/45/60
f 22/37/64 23/36/65 26/45/60
f 23/36/65 24/43/66 26/45/60
f 24/43/66 17/42/58 26/45/60
s off
usemtl lambert9SG
f 27/46/67 28/47/68 38/48/69 37/49/70
f 28/47/71 29/50/72 39/51/73 38/48/74
f 29/50/75 30/52/76 40/53/77 39/51/78
f 30/52/79 31/54/80 41/55/81 40/53/82
f 31/54/83 32/56/84 42/57/85 41/55/86
f 32/56/87 33/58/88 43/59/89 42/57/90
f 33/58/91 34/60/92 44/61/93 43/59/94
f 34/60/95 35/62/96 45/63/97 44/61/98
f 35/62/99 36/64/100 46/65/101 45/63/102
f 36/64/103 27/66/104 37/67/105 46/65/106
f 37/49/107 38/48/108 48/68/109 47/69/110
f 38/48/111 39/51/112 49/70/113 48/68/114
f 39/51/115 40/53/116 50/71/117 49/70/118
f 40/53/119 41/55/120 51/72/121 50/71/122
f 41/55/123 42/57/124 52/73/125 51/72/126
f 42/57/127 43/59/128 53/74/129 52/73/130
f 43/59/131 44/61/132 54/75/133 53/74/134
f 44/61/135 45/63/136 55/76/137 54/75/138
f 45/63/139 46/65/140 56/77/141 55/76/142
f 46/65/143 37/67/144 47/78/145 56/77/146
f 47/69/147 48/68/148 58/79/149 57/80/150
f 48/68/151 49/70/152 59/81/153 58/79/154
f 49/70/155 50/71/156 60/82/157 59/81/158
f 50/71/159 51/72/160 61/83/161 60/82/162
f 51/72/163 52/73/164 62/84/165 61/83/166
f 52/73/167 53/74/168 63/85/169 62/84/170
f 53/74/171 54/75/172 64/86/173 63/85/174
f 54/75/175 55/76/176 65/87/177 64/86/178
f 55/76/179 56/77/180 66/88/181 65/87/182
f 56/77/183 47/78/184 57/89/185 66/88/186
f 57/80/187 58/79/188 68/90/189 67/91/190
f 58/79/191 59/81/192 69/92/193 68/90/194
f 59/81/195 60/82/196 70/93/197 69/92/198
f 60/82/199 61/83/200 71/94/201 70/93/202
f 61/83/203 62/84/204 72/95/205 71/94/206
f 62/84/207 63/85/208 73/96/209 72/95/210
f 63/85/211 64/86/212 74/97/213 73/96/214
f 64/86/215 65/87/216 75/98/217 74/97/218
f 65/87/219 66/88/220 76/99/221 75/98/222
f 66/88/223 57/89/224 67/100/225 76/99/226
f 67/91/227 68/90/228 77/101/229
f 68/90/230 69/92/231 77/102/232
f 69/92/233 70/93/234 77/103/235
f 70/93/236 71/94/237 77/104/238
f 71/94/239 72/95/240 77/105/241
f 72/95/242 73/96/243 77/106/244
f 73/96/245 74/97/246 77/107/247
f 74/97/248 75/98/249 77/108/250
f 75/98/251 76/99/252 77/109/253
f 76/99/254 67/100/255 77/110/256
s 11
usemtl blinn2SG
f 78/111/257 79/112/258 90/113/259 89/114/260
f 79/112/258 80/115/261 91/116/262 90/113/259
f 80/115/261 81/117/263 92/118/264 91/116/262
f 81/117/263 82/119/265 93/120/266 92/118/264
f 82/119/265 83/121/267 94/122/268 93/120/266
f 83/121/267 84/123/269 95/124/270 94/122/268
f 84/123/269 85/125/271 96/126/272 95/124/270
f 85/125/271 86/127/273 97/128/274 96/126/272
f 86/127/273 87/129/275 98/130/276 97/128/274
f 87/129/275 88/131/277 99/132/278 98/130/276
f 88/131/277 78/133/257 89/134/260 99/132/278
s off
f 78/135/279 88/136/280 87/137/281 86/138/282 85/139/283 84/140/284 83/141/285 82/142/286 81/143/287 80/144/288 79/145/289
f 90/113/290 91/116/291 92/118/292 93/120/293 94/122/294 95/124/295 96/126/296 97/128/297 98/130/298 99/132/299 89/114/300
