# Blender v3.2.1 OBJ File: ''
# www.blender.org
mtllib SHAKE.mtl
o SHAKE
v 0.155243 1.934296 0.319514
v 0.037183 1.921583 0.295279
v 0.037183 3.489253 -0.201046
v 0.155243 3.513695 -0.188735
v -0.080877 1.934296 0.319514
v -0.080877 3.513695 -0.188735
v -0.129779 1.964988 0.378022
v -0.129779 3.572702 -0.159013
v -0.080877 1.995681 0.436531
v -0.080877 3.631710 -0.129291
v 0.037183 2.008394 0.460766
v 0.037183 3.656151 -0.116980
v 0.155243 1.995681 0.436531
v 0.155243 3.631710 -0.129291
v 0.204145 1.964988 0.378022
v 0.204145 3.572702 -0.159013
v 0.037183 3.908684 -1.033748
v 0.155243 3.933125 -1.021436
v -0.080877 3.933125 -1.021436
v -0.129779 3.992132 -0.991715
v -0.080877 4.051139 -0.961993
v 0.037183 4.075581 -0.949681
v 0.155243 4.051139 -0.961993
v 0.204145 3.992132 -0.991715
v 0.037183 1.964988 0.378022
v 0.037183 3.992132 -0.991715
v 0.735695 2.045514 -0.447980
v 0.281011 2.045514 -0.771290
v 0.267257 2.354531 -0.729862
v 0.699688 2.354531 -0.422376
v -0.281011 2.045514 -0.771290
v -0.267257 2.354531 -0.729862
v -0.735695 2.045514 -0.447980
v -0.699688 2.354531 -0.422376
v -0.909369 2.045514 0.075147
v -0.864862 2.354531 0.075147
v -0.735695 2.045514 0.598274
v -0.699688 2.354531 0.572670
v -0.281011 2.045514 0.921584
v -0.267257 2.354531 0.880156
v 0.281011 2.045514 0.921584
v 0.267257 2.354531 0.880156
v 0.735695 2.045514 0.598273
v 0.699688 2.354531 0.572670
v 0.909369 2.045514 0.075147
v 0.864862 2.354531 0.075147
v 0.227342 2.633299 -0.609635
v 0.595190 2.633299 -0.348072
v -0.227342 2.633299 -0.609635
v -0.595190 2.633299 -0.348071
v -0.735695 2.633299 0.075147
v -0.595190 2.633299 0.498365
v -0.227342 2.633299 0.759929
v 0.227342 2.633299 0.759929
v 0.595190 2.633299 0.498365
v 0.735695 2.633299 0.075147
v 0.165174 2.854531 -0.422376
v 0.432431 2.854531 -0.232339
v -0.165174 2.854531 -0.422376
v -0.432431 2.854531 -0.232339
v -0.534514 2.854531 0.075147
v -0.432431 2.854531 0.382633
v -0.165174 2.854531 0.572670
v 0.165174 2.854531 0.572670
v 0.432431 2.854531 0.382633
v 0.534514 2.854531 0.075147
v 0.086837 2.996570 -0.186417
v 0.227342 2.996570 -0.086508
v -0.086837 2.996570 -0.186416
v -0.227342 2.996570 -0.086508
v -0.281011 2.996570 0.075147
v -0.227342 2.996570 0.236802
v -0.086837 2.996570 0.336710
v 0.086837 2.996570 0.336710
v 0.227342 2.996570 0.236802
v 0.281011 2.996570 0.075147
v 0.000000 3.045514 0.075147
v 0.803738 2.053074 0.687026
v 0.354834 2.059677 1.027519
v 0.158129 0.141545 0.703097
v 0.513703 0.137327 0.485232
v -0.206926 2.060474 1.071310
v -0.290507 0.141951 0.726280
v -0.703188 2.055212 0.804498
v -0.689769 0.138417 0.547420
v -0.976393 2.045561 0.311792
v -0.912892 0.132064 0.223305
v -0.939799 2.034586 -0.250377
v -0.889037 0.124909 -0.143161
v -0.605025 2.025771 -0.703523
v -0.625778 0.119225 -0.435629
v -0.078359 2.021915 -0.903777
v -0.206697 0.116815 -0.561241
v 0.472986 2.024242 -0.787558
v 0.235150 0.118445 -0.480116
v 0.873961 2.032013 -0.391766
v 0.559480 0.123598 -0.218012
v 0.997261 2.042761 0.157938
v 0.663320 0.130636 0.141856
vt 0.375000 0.312500
vt 0.406250 0.312500
vt 0.406250 0.500470
vt 0.375000 0.500470
vt 0.437500 0.312500
vt 0.437500 0.500470
vt 0.468750 0.312500
vt 0.468750 0.500470
vt 0.500000 0.312500
vt 0.500000 0.500470
vt 0.531250 0.312500
vt 0.531250 0.500470
vt 0.562500 0.312500
vt 0.562500 0.500470
vt 0.593750 0.312500
vt 0.593750 0.500470
vt 0.625000 0.312500
vt 0.625000 0.500470
vt 0.406250 0.688440
vt 0.375000 0.688440
vt 0.437500 0.688440
vt 0.468750 0.688440
vt 0.500000 0.688440
vt 0.531250 0.688440
vt 0.562500 0.688440
vt 0.593750 0.688440
vt 0.625000 0.688440
vt 0.500000 0.000000
vt 0.610485 0.045765
vt 0.500000 0.150000
vt 0.389515 0.045765
vt 0.343750 0.156250
vt 0.389515 0.266735
vt 0.500000 0.312500
vt 0.610485 0.266735
vt 0.656250 0.156250
vt 0.610485 0.954235
vt 0.500000 1.000000
vt 0.500000 0.837500
vt 0.389515 0.954235
vt 0.343750 0.843750
vt 0.389515 0.733265
vt 0.500000 0.687500
vt 0.610485 0.733265
vt 0.656250 0.843750
vt 0.000000 0.500000
vt 0.100000 0.500000
vt 0.100000 0.600000
vt 0.000000 0.600000
vt 0.200000 0.500000
vt 0.200000 0.600000
vt 0.300000 0.500000
vt 0.300000 0.600000
vt 0.400000 0.500000
vt 0.400000 0.600000
vt 0.500000 0.500000
vt 0.500000 0.600000
vt 0.600000 0.500000
vt 0.600000 0.600000
vt 0.700000 0.500000
vt 0.700000 0.600000
vt 0.800000 0.500000
vt 0.800000 0.600000
vt 0.900000 0.500000
vt 0.900000 0.600000
vt 1.000000 0.500000
vt 1.000000 0.600000
vt 0.100000 0.700000
vt 0.000000 0.700000
vt 0.200000 0.700000
vt 0.300000 0.700000
vt 0.400000 0.700000
vt 0.500000 0.700000
vt 0.600000 0.700000
vt 0.700000 0.700000
vt 0.800000 0.700000
vt 0.900000 0.700000
vt 1.000000 0.700000
vt 0.100000 0.800000
vt 0.000000 0.800000
vt 0.200000 0.800000
vt 0.300000 0.800000
vt 0.400000 0.800000
vt 0.500000 0.800000
vt 0.600000 0.800000
vt 0.700000 0.800000
vt 0.800000 0.800000
vt 0.900000 0.800000
vt 1.000000 0.800000
vt 0.100000 0.900000
vt 0.000000 0.900000
vt 0.200000 0.900000
vt 0.300000 0.900000
vt 0.400000 0.900000
vt 0.500000 0.900000
vt 0.600000 0.900000
vt 0.700000 0.900000
vt 0.800000 0.900000
vt 0.900000 0.900000
vt 1.000000 0.900000
vt 0.050000 1.000000
vt 0.150000 1.000000
vt 0.250000 1.000000
vt 0.350000 1.000000
vt 0.450000 1.000000
vt 0.550000 1.000000
vt 0.650000 1.000000
vt 0.750000 1.000000
vt 0.850000 1.000000
vt 0.950000 1.000000
vt 0.710313 0.114840
vt 0.750000 0.250000
vt 0.710313 0.385160
vt 0.603854 0.477408
vt 0.464421 0.497455
vt 0.336285 0.438937
vt 0.260127 0.320433
vt 0.260127 0.179567
vt 0.336285 0.061063
vt 0.464421 0.002545
vt 0.603854 0.022592
vt 0.336364 0.600000
vt 0.372727 0.600000
vt 0.409091 0.600000
vt 0.445455 0.600000
vt 0.481818 0.600000
vt 0.518182 0.600000
vt 0.554545 0.600000
vt 0.590909 0.600000
vt 0.627273 0.600000
vt 0.663636 0.600000
vt 0.300000 0.600000
vt 0.250000 0.500000
vt 0.295455 0.500000
vt 0.340909 0.500000
vt 0.386364 0.500000
vt 0.431818 0.500000
vt 0.477273 0.500000
vt 0.522727 0.500000
vt 0.568182 0.500000
vt 0.613636 0.500000
vt 0.659091 0.500000
vt 0.704546 0.500000
vt 0.750000 0.500000
vt 0.700000 0.600000
vn 0.1917 -0.2985 -0.9350
vn 0.2178 -0.5281 -0.8208
vn 0.2205 -0.5598 -0.7988
vn -0.1917 -0.2985 -0.9350
vn -0.2205 -0.5598 -0.7988
vn -0.2178 -0.5281 -0.8208
vn -0.7526 -0.2052 -0.6257
vn -0.8023 -0.3795 -0.4607
vn -0.7885 -0.3134 -0.5292
vn -0.7544 0.2113 0.6215
vn -0.8021 0.3796 0.4610
vn -0.7887 0.3160 0.5273
vn -0.1942 0.3226 0.9264
vn -0.2204 0.5648 0.7952
vn -0.2180 0.5357 0.8158
vn 0.1942 0.3226 0.9264
vn 0.2180 0.5357 0.8158
vn 0.2204 0.5648 0.7952
vn 0.7544 0.2113 0.6215
vn 0.7887 0.3160 0.5273
vn 0.8021 0.3796 0.4610
vn 0.7526 -0.2052 -0.6257
vn 0.7885 -0.3134 -0.5292
vn 0.8023 -0.3795 -0.4607
vn 0.2258 -0.8700 -0.4382
vn -0.2258 -0.8700 -0.4382
vn -0.8038 -0.5313 -0.2676
vn -0.8038 0.5313 0.2676
vn -0.2258 0.8700 0.4382
vn 0.2258 0.8700 0.4382
vn 0.8038 0.5313 0.2676
vn 0.8038 -0.5313 -0.2676
vn -0.0000 -0.8856 0.4645
vn 0.0000 -0.8855 0.4645
vn 0.0000 0.4498 -0.8931
vn -0.0000 0.4499 -0.8931
vn 0.5743 0.1338 -0.8076
vn 0.0000 0.1329 -0.9911
vn -0.5743 0.1338 -0.8076
vn -0.9403 0.1354 -0.3122
vn -0.9403 0.1354 0.3122
vn -0.5743 0.1338 0.8076
vn 0.0000 0.1329 0.9911
vn 0.5743 0.1338 0.8076
vn 0.9403 0.1354 0.3122
vn 0.9403 0.1354 -0.3122
vn 0.5315 0.3985 -0.7475
vn 0.0000 0.3960 -0.9182
vn -0.5315 0.3985 -0.7475
vn -0.8688 0.4025 -0.2884
vn -0.8688 0.4025 0.2884
vn -0.5315 0.3985 0.7475
vn 0.0000 0.3960 0.9182
vn 0.5315 0.3985 0.7475
vn 0.8688 0.4025 0.2884
vn 0.8688 0.4025 -0.2884
vn 0.4410 0.6488 -0.6201
vn 0.0000 0.6461 -0.7633
vn -0.4410 0.6488 -0.6201
vn -0.7185 0.6534 -0.2385
vn -0.7185 0.6534 0.2385
vn -0.4410 0.6488 0.6201
vn 0.0000 0.6461 0.7633
vn 0.4410 0.6488 0.6201
vn 0.7185 0.6534 0.2385
vn 0.7185 0.6534 -0.2385
vn 0.2973 0.8584 -0.4180
vn -0.0000 0.8567 -0.5157
vn -0.2973 0.8584 -0.4180
vn -0.4825 0.8611 -0.1602
vn -0.4825 0.8611 0.1602
vn -0.2973 0.8584 0.4180
vn 0.0000 0.8568 0.5157
vn 0.2973 0.8584 0.4180
vn 0.4825 0.8611 0.1602
vn 0.4825 0.8611 -0.1602
vn 0.1058 0.9832 -0.1488
vn -0.0000 0.9829 -0.1839
vn -0.1058 0.9832 -0.1488
vn -0.1713 0.9836 -0.0569
vn -0.1713 0.9836 0.0569
vn -0.1058 0.9832 0.1488
vn 0.0000 0.9829 0.1839
vn 0.1058 0.9832 0.1488
vn 0.1713 0.9836 0.0569
vn 0.1713 0.9836 -0.0569
vn -0.0001 0.9998 -0.0195
vn 0.0001 -0.9998 0.0195
vn 0.7638 -0.1839 0.6187
vn 0.3236 -0.1855 0.9278
vn 0.3127 -0.1854 0.9316
vn 0.7645 -0.1838 0.6179
vn -0.1781 -0.1606 0.9708
vn -0.2042 -0.1583 0.9661
vn -0.6535 -0.1048 0.7497
vn -0.6792 -0.1007 0.7270
vn -0.9660 -0.0502 0.2536
vn -0.9713 -0.0490 0.2329
vn -0.9279 -0.0517 -0.3692
vn -0.9313 -0.0511 -0.3606
vn -0.5558 -0.1093 -0.8241
vn -0.5784 -0.1059 -0.8089
vn -0.0523 -0.1671 -0.9845
vn -0.0775 -0.1649 -0.9833
vn 0.4452 -0.1920 -0.8746
vn 0.4310 -0.1918 -0.8817
vn 0.8427 -0.1877 -0.5046
vn 0.8382 -0.1879 -0.5120
vn 0.9813 -0.1793 0.0703
vn 0.9817 -0.1793 0.0645
usemtl blinn1SG
s 1
f 1/1/1 2/2/1 3/3/2 4/4/3
f 2/2/4 5/5/4 6/6/5 3/3/6
f 5/5/7 7/7/7 8/8/8 6/6/9
f 7/7/10 9/9/10 10/10/11 8/8/12
f 9/9/13 11/11/13 12/12/14 10/10/15
f 11/11/16 13/13/16 14/14/17 12/12/18
f 13/13/19 15/15/19 16/16/20 14/14/21
f 15/15/22 1/17/22 4/18/23 16/16/24
f 4/4/3 3/3/2 17/19/25 18/20/25
f 3/3/6 6/6/5 19/21/26 17/19/26
f 6/6/9 8/8/8 20/22/27 19/21/27
f 8/8/12 10/10/11 21/23/28 20/22/28
f 10/10/15 12/12/14 22/24/29 21/23/29
f 12/12/18 14/14/17 23/25/30 22/24/30
f 14/14/21 16/16/20 24/26/31 23/25/31
f 16/16/24 4/18/23 18/27/32 24/26/32
f 2/28/33 1/29/33 25/30/33
f 5/31/33 2/28/33 25/30/33
f 7/32/33 5/31/33 25/30/33
f 9/33/34 7/32/33 25/30/33
f 11/34/33 9/33/34 25/30/33
f 13/35/33 11/34/33 25/30/33
f 15/36/33 13/35/33 25/30/33
f 1/29/33 15/36/33 25/30/33
f 18/37/35 17/38/36 26/39/36
f 17/38/36 19/40/35 26/39/36
f 19/40/35 20/41/36 26/39/36
f 20/41/36 21/42/36 26/39/36
f 21/42/36 22/43/36 26/39/36
f 22/43/36 23/44/36 26/39/36
f 23/44/36 24/45/36 26/39/36
f 24/45/36 18/37/35 26/39/36
usemtl lambert9SG
s off
f 27/46/37 28/47/37 29/48/37 30/49/37
f 28/47/38 31/50/38 32/51/38 29/48/38
f 31/50/39 33/52/39 34/53/39 32/51/39
f 33/52/40 35/54/40 36/55/40 34/53/40
f 35/54/41 37/56/41 38/57/41 36/55/41
f 37/56/42 39/58/42 40/59/42 38/57/42
f 39/58/43 41/60/43 42/61/43 40/59/43
f 41/60/44 43/62/44 44/63/44 42/61/44
f 43/62/45 45/64/45 46/65/45 44/63/45
f 45/64/46 27/66/46 30/67/46 46/65/46
f 30/49/47 29/48/47 47/68/47 48/69/47
f 29/48/48 32/51/48 49/70/48 47/68/48
f 32/51/49 34/53/49 50/71/49 49/70/49
f 34/53/50 36/55/50 51/72/50 50/71/50
f 36/55/51 38/57/51 52/73/51 51/72/51
f 38/57/52 40/59/52 53/74/52 52/73/52
f 40/59/53 42/61/53 54/75/53 53/74/53
f 42/61/54 44/63/54 55/76/54 54/75/54
f 44/63/55 46/65/55 56/77/55 55/76/55
f 46/65/56 30/67/56 48/78/56 56/77/56
f 48/69/57 47/68/57 57/79/57 58/80/57
f 47/68/58 49/70/58 59/81/58 57/79/58
f 49/70/59 50/71/59 60/82/59 59/81/59
f 50/71/60 51/72/60 61/83/60 60/82/60
f 51/72/61 52/73/61 62/84/61 61/83/61
f 52/73/62 53/74/62 63/85/62 62/84/62
f 53/74/63 54/75/63 64/86/63 63/85/63
f 54/75/64 55/76/64 65/87/64 64/86/64
f 55/76/65 56/77/65 66/88/65 65/87/65
f 56/77/66 48/78/66 58/89/66 66/88/66
f 58/80/67 57/79/67 67/90/67 68/91/67
f 57/79/68 59/81/68 69/92/68 67/90/68
f 59/81/69 60/82/69 70/93/69 69/92/69
f 60/82/70 61/83/70 71/94/70 70/93/70
f 61/83/71 62/84/71 72/95/71 71/94/71
f 62/84/72 63/85/72 73/96/72 72/95/72
f 63/85/73 64/86/73 74/97/73 73/96/73
f 64/86/74 65/87/74 75/98/74 74/97/74
f 65/87/75 66/88/75 76/99/75 75/98/75
f 66/88/76 58/89/76 68/100/76 76/99/76
f 68/91/77 67/90/77 77/101/77
f 67/90/78 69/92/78 77/102/78
f 69/92/79 70/93/79 77/103/79
f 70/93/80 71/94/80 77/104/80
f 71/94/81 72/95/81 77/105/81
f 72/95/82 73/96/82 77/106/82
f 73/96/83 74/97/83 77/107/83
f 74/97/84 75/98/84 77/108/84
f 75/98/85 76/99/85 77/109/85
f 76/99/86 68/100/86 77/110/86
usemtl blinn2SG
f 78/111/87 98/112/87 96/113/87 94/114/87 92/115/87 90/116/87 88/117/87 86/118/87 84/119/87 82/120/87 79/121/87
f 80/122/88 83/123/88 85/124/88 87/125/88 89/126/88 91/127/88 93/128/88 95/129/88 97/130/88 99/131/88 81/132/88
s 1
f 78/133/89 79/134/90 80/122/91 81/132/92
f 79/134/90 82/135/93 83/123/94 80/122/91
f 82/135/93 84/136/95 85/124/96 83/123/94
f 84/136/95 86/137/97 87/125/98 85/124/96
f 86/137/97 88/138/99 89/126/100 87/125/98
f 88/138/99 90/139/101 91/127/102 89/126/100
f 90/139/101 92/140/103 93/128/104 91/127/102
f 92/140/103 94/141/105 95/129/106 93/128/104
f 94/141/105 96/142/107 97/130/108 95/129/106
f 96/142/107 98/143/109 99/131/110 97/130/108
f 98/143/109 78/144/89 81/145/92 99/131/110
